<svg version="1.2" baseProfile="tiny-ps" xmlns="http://www.w3.org/2000/svg" viewBox="0 0 1296 864" width="1296" height="864">
	<title>25499-ai</title>
	<style>
		tspan { white-space:pre }
		.shp0 { fill: #fff } 
		.shp1 { fill: #000 } 
	</style>
	<g id="Layer 1">
		<g id="&lt;Group&gt;">
			<g id="&lt;Clip Group&gt;">
				<g id="&lt;Group&gt;">
					<path id="&lt;Path&gt;" class="shp1" d="M1394.6 201.53C1387.61 202.01 1380.96 200.53 1375.45 197.63C1370.69 217.69 1350.64 233.52 1325.11 235.23C1311.52 236.18 1298.74 232.95 1288.42 226.86C1282.29 238.84 1268.65 247.68 1252.01 248.82C1239.75 249.63 1228.25 246.07 1219.74 239.7C1212.66 256.76 1194.17 269.59 1171.36 271.11C1149.49 272.59 1129.58 263.27 1118.98 248.54C1111.8 254.34 1102.3 258.14 1091.6 258.85C1082.38 259.47 1073.59 257.71 1066.08 254.19C1060.66 277.96 1036.85 296.78 1006.67 298.82C984.05 300.35 963.13 292.08 949.92 278.29C936.9 290.6 918.36 298.92 897.26 300.35C861.56 302.72 829.58 284.9 817.31 258.28C810.33 261.28 802.58 263.22 794.31 263.8C766.6 265.65 741.74 251.63 732.52 230.81C722.78 238.51 709.99 243.6 695.64 244.59C695.18 244.62 694.73 244.61 694.28 244.63C682.94 267.25 657.33 283.91 626.12 286.04C609.86 287.13 594.37 284.13 581.06 278.05C571.08 290.46 554.73 299.11 535.58 300.39C504.68 302.48 477.35 284.8 471.22 259.99C461.29 268.73 447.65 274.58 432.15 275.63C423.55 276.2 415.18 275.25 407.53 273.01C397.84 286.89 380.49 296.73 359.96 298.16C327.92 300.29 299.78 281.28 295.03 255.09C282.53 273.49 259.76 286.61 232.67 288.41C198.88 290.69 168.37 274.77 154.82 250.48C145.98 263.55 129.82 272.82 110.62 274.11C80.58 276.15 54.25 257.9 50.64 233.04C50.11 233.09 49.64 233.18 49.16 233.18C26.97 234.7 6.81 225.1 -3.69 209.99C-5.92 210.46 -8.21 210.8 -10.53 210.99C-25.03 211.94 -38.48 206.8 -47.18 198.15C-52.12 193.21 -55.59 187.18 -56.83 180.43C-59.16 181.04 -61.58 181.47 -64.1 181.66C-81.45 182.85 -96.61 172.01 -98.04 157.52C-99.41 142.97 -86.49 130.23 -69.19 129.09C-62.2 128.62 -55.54 130.09 -50.03 132.99C-45.28 112.93 -25.22 97.11 0.3 95.4C13.9 94.45 26.68 97.68 37 103.76C43.13 91.78 56.77 82.94 73.4 81.8C85.66 80.99 97.17 84.56 105.67 90.93C112.76 73.87 131.25 61.03 154.06 59.51C175.92 58.04 195.84 67.35 206.44 82.09C213.61 76.29 223.12 72.49 233.81 71.77C243.03 71.16 251.83 72.91 259.34 76.43C264.75 52.67 288.57 33.85 318.75 31.8C341.37 30.28 362.28 38.55 375.5 52.33C388.52 40.02 407.06 31.71 428.16 30.28C463.85 27.9 495.84 45.73 508.1 72.34C515.09 69.35 522.84 67.4 531.11 66.83C558.82 64.98 583.68 79 592.9 99.82C602.64 92.12 615.42 87.03 629.78 86.03C630.24 86 630.68 86.02 631.14 86C642.48 63.38 668.09 46.72 699.3 44.59C715.55 43.5 731.05 46.49 744.36 52.58C754.34 40.17 770.69 31.52 789.84 30.24C820.73 28.15 848.06 45.83 854.2 70.64C864.13 61.89 877.77 56.05 893.26 55C901.87 54.43 910.23 55.38 917.88 57.61C927.58 43.74 944.93 33.9 965.46 32.47C997.5 30.33 1025.63 49.34 1030.39 75.53C1042.89 57.14 1065.65 44.02 1092.74 42.21C1126.54 39.93 1157.05 55.86 1170.6 80.14C1179.44 67.07 1195.6 57.8 1214.8 56.52C1244.84 54.48 1271.17 72.73 1274.78 97.59C1275.3 97.54 1275.78 97.44 1276.25 97.44C1298.45 95.92 1318.6 105.52 1329.11 120.64C1331.34 120.16 1333.62 119.83 1335.95 119.64C1350.45 118.69 1363.9 123.82 1372.6 132.47C1377.54 137.42 1381.01 143.45 1382.24 150.2C1384.57 149.58 1387 149.16 1389.52 148.97C1406.86 147.78 1422.03 158.61 1423.45 173.11C1424.83 187.65 1411.9 200.39 1394.6 201.53Z" />
				</g>
			</g>
		</g>
	</g>
</svg>