<svg version="1.2" baseProfile="tiny-ps" xmlns="http://www.w3.org/2000/svg" viewBox="0 0 1296 864" width="1296" height="864">
	<title>25499-ai</title>
	<style>
		tspan { white-space:pre }
		.shp0 { fill: #0f0f0f } 
		.shp1 { fill: #000 } 
		.shp3 { fill: #ffa1d8 }

		.s0 { fill: #FFC5E4 }
		.s1 { fill: #ffd6a5 }
		.s2 { fill: #fdffb6 }
		.s3 { fill: #C4FFA7 }
		.s4 { fill: #9bf6ff }
		.s5 { fill: #F0BAFF }
	</style>
	<g id="Layer 1">
		<g id="&lt;Group&gt;">
			<path id="&lt;Path&gt;" class="shp0" d="M-54.86 269.33C-54.86 294.36 -38.17 316.14 -13.57 327.25C-2.51 332.2 10.1 335.01 23.53 335.01C43.52 335.01 61.71 328.66 75.54 318.33C83.69 353.2 120.26 379.5 164.21 379.5C189.58 379.5 212.48 370.72 228.92 356.6C245.03 369.21 266.62 376.97 290.43 376.97C340.35 376.97 380.81 343.07 380.81 301.25C380.81 298.53 380.66 295.91 380.32 293.25C394.68 308.09 416.61 317.6 441.15 317.6C468.32 317.6 492.19 306.05 506.25 288.49C520.52 300.96 540.6 308.77 562.86 308.77C584.3 308.77 603.68 301.55 617.82 289.85C622.97 289.12 627.95 287.97 632.7 286.41C644.85 311.31 672.72 330 706.52 332.67C728.23 334.38 748.6 329.13 764.62 319.15C772.01 346.98 800.33 369.12 835.78 371.91C867.55 374.42 896.08 360.66 910.12 338.8C923.32 352.2 942.54 361.4 964.55 363.14C981.23 364.45 996.96 361.26 1010.21 354.82C1019.44 371.65 1038.9 384.13 1062.21 385.97C1087.35 387.95 1109.87 377.08 1120.91 359.8C1128.05 371.11 1141.65 379.39 1157.85 380.66C1182.32 382.59 1203.48 367.86 1205.82 347.51C1252.35 348.02 1291.32 318.44 1294.44 278.83C1295.38 266.99 1292.92 255.55 1287.9 245.13C1321.91 240.32 1348.58 216.83 1350.97 186.51C1352.93 161.55 1338.01 138.53 1314.36 125.52C1303.73 119.72 1291.38 115.92 1277.98 114.87C1258.06 113.29 1239.42 118.2 1224.83 127.41C1219.44 92 1185.05 62.92 1141.23 59.46C1115.94 57.47 1092.43 64.42 1074.92 77.2C1059.86 63.36 1038.95 53.93 1015.2 52.06C965.44 48.13 922.45 78.76 919.16 120.44C918.94 123.15 918.88 125.77 919.01 128.46C905.87 112.53 884.75 101.33 860.28 99.4C833.2 97.27 808.5 106.9 793.1 123.3C779.86 109.75 760.45 100.39 738.26 98.64C721.77 97.34 706.18 100.41 693.01 106.73C691.12 106.61 689.22 106.53 687.29 106.53C675.07 106.53 663.57 109.01 653.33 113.28C639.27 89.41 610.02 72.96 576.11 72.96C554.33 72.96 534.44 79.8 519.25 91.01C509.7 63.84 479.72 44 444.16 44C412.29 44 384.93 59.96 372.66 82.86C358.44 70.54 338.56 62.87 316.48 62.87C299.75 62.87 284.32 67.29 271.61 74.76C261.09 58.7 240.71 47.79 217.33 47.79C192.11 47.79 170.52 60.4 160.87 78.49C152.86 67.77 138.65 60.59 122.4 60.59C97.85 60.59 77.91 76.94 77.19 97.41C30.76 100.57 -5.77 133.12 -5.77 172.85C-5.77 184.73 -2.42 195.94 3.4 205.93C-30.12 213.4 -54.86 238.92 -54.86 269.33Z" />
			<g id="&lt;Group&gt;">
				<g id="&lt;Group&gt;">
					<path id="&lt;Path&gt;" class="s3" d="M171.92 522.66L170.42 522.66L170.42 54.63L171.92 54.63L171.92 522.66Z" />
				</g>
				<path id="&lt;Path&gt;" class="s0" d="M171.17 514.44L181.69 534.67L204.18 538.42L188.19 554.68L191.57 577.23L171.17 567.05L150.77 577.23L154.15 554.68L138.16 538.42L160.65 534.67L171.17 514.44Z" />
			</g>
			<g id="&lt;Group&gt;">
				<g id="&lt;Group&gt;">
					<path id="&lt;Path&gt;" class="s4" d="M270.63 437.54L269.13 437.54L269.13 123.34L270.63 123.34L270.63 437.54Z" />
				</g>
				<path id="&lt;Path&gt;" class="s1" d="M269.88 432.03L276.94 445.61L292.04 448.13L281.31 459.04L283.58 474.18L269.88 467.34L256.18 474.18L258.45 459.04L247.72 448.13L262.82 445.61L269.88 432.03Z" />
			</g>
			<g id="&lt;Group&gt;">
				<g id="&lt;Group&gt;">
					<path id="&lt;Path&gt;" class="s5" d="M1156.45 507.63L1154.95 507.63L1154.95 69.97L1156.45 69.97L1156.45 507.63Z" />
				</g>
				<path id="&lt;Path&gt;" class="s2" d="M1155.7 499.94L1165.54 518.86L1186.57 522.37L1171.62 537.57L1174.78 558.65L1155.7 549.13L1136.63 558.65L1139.79 537.57L1124.84 522.37L1145.87 518.86L1155.7 499.94Z" />
			</g>
			<g id="&lt;Group&gt;">
				<g id="&lt;Group&gt;">
					<path id="&lt;Path&gt;" class="s0" d="M1221.63 419.52L1220.13 419.52L1220.13 106.46L1221.63 106.46L1221.63 419.52Z" />
				</g>
				<path id="&lt;Path&gt;" class="s3" d="M1220.88 414.02L1227.92 427.55L1242.96 430.06L1232.27 440.94L1234.53 456.02L1220.88 449.21L1207.24 456.02L1209.5 440.94L1198.8 430.06L1213.85 427.55L1220.88 414.02Z" />
			</g>
			<g id="&lt;Group&gt;">
				<g id="&lt;Group&gt;">
					<path id="&lt;Path&gt;" class="s1" d="M1064.89 461.99L1063.39 461.99L1063.39 148.93L1064.89 148.93L1064.89 461.99Z" />
				</g>
				<path id="&lt;Path&gt;" class="s4" d="M1064.14 456.49L1071.18 470.03L1086.22 472.54L1075.53 483.41L1077.79 498.49L1064.14 491.68L1050.5 498.49L1052.76 483.41L1042.06 472.54L1057.11 470.03L1064.14 456.49Z" />
			</g>
			<g id="&lt;Group&gt;">
				<g id="&lt;Group&gt;">
					<path id="&lt;Path&gt;" class="s2" d="M75.39 447.87L73.89 447.87L73.89 134.81L75.39 134.81L75.39 447.87Z" />
				</g>
				<path id="&lt;Path&gt;" class="s5" d="M74.64 442.37L81.68 455.9L96.72 458.41L86.03 469.28L88.29 484.37L74.64 477.55L61 484.37L63.26 469.28L52.56 458.41L67.61 455.9L74.64 442.37Z" />
			</g>
			<path id="&lt;Path&gt;" class="shp1" d="M1379.6 171.53C1372.61 172.01 1365.96 170.53 1360.45 167.63C1355.69 187.69 1335.64 203.52 1310.11 205.23C1296.52 206.18 1283.74 202.95 1273.42 196.86C1267.29 208.84 1253.65 217.68 1237.01 218.82C1224.75 219.63 1213.25 216.07 1204.74 209.7C1197.66 226.76 1179.17 239.59 1156.36 241.11C1134.49 242.59 1114.58 233.27 1103.98 218.54C1096.8 224.34 1087.3 228.14 1076.6 228.85C1067.38 229.47 1058.59 227.71 1051.08 224.19C1045.66 247.96 1021.85 266.78 991.67 268.82C969.05 270.35 948.13 262.08 934.92 248.29C921.9 260.6 903.36 268.92 882.26 270.35C846.56 272.72 814.58 254.9 802.31 228.28C795.33 231.28 787.58 233.22 779.31 233.8C751.6 235.65 726.74 221.63 717.52 200.81C707.78 208.51 694.99 213.6 680.64 214.59C680.18 214.62 679.73 214.61 679.28 214.63C667.94 237.25 642.33 253.91 611.12 256.04C594.86 257.13 579.37 254.13 566.06 248.05C556.08 260.46 539.73 269.11 520.58 270.39C489.68 272.48 462.35 254.8 456.22 229.99C446.29 238.73 432.65 244.58 417.15 245.63C408.55 246.2 400.18 245.25 392.53 243.01C382.84 256.89 365.49 266.73 344.96 268.16C312.92 270.29 284.78 251.28 280.03 225.09C267.53 243.49 244.76 256.61 217.67 258.41C183.88 260.69 153.37 244.77 139.82 220.48C130.98 233.55 114.82 242.82 95.62 244.11C65.58 246.15 39.25 227.9 35.64 203.04C35.11 203.09 34.64 203.18 34.16 203.18C11.97 204.7 -8.19 195.1 -18.69 179.99C-20.92 180.46 -23.21 180.8 -25.53 180.99C-40.03 181.94 -53.48 176.8 -62.18 168.15C-67.12 163.21 -70.59 157.18 -71.83 150.43C-74.16 151.04 -76.58 151.47 -79.1 151.66C-96.45 152.85 -111.61 142.01 -113.04 127.52C-114.41 112.97 -101.49 100.23 -84.19 99.09C-77.2 98.62 -70.54 100.09 -65.03 102.99C-60.28 82.93 -40.22 67.11 -14.7 65.4C-1.1 64.45 11.68 67.68 22 73.76C28.13 61.78 41.77 52.94 58.4 51.8C70.66 50.99 82.17 54.56 90.67 60.93C97.76 43.87 116.25 31.03 139.06 29.51C160.92 28.04 180.84 37.35 191.44 52.09C198.61 46.29 208.12 42.49 218.81 41.77C228.03 41.16 236.83 42.91 244.34 46.43C249.75 22.67 273.57 3.85 303.75 1.8C326.37 0.28 347.28 8.55 360.5 22.33C373.52 10.02 392.06 1.71 413.16 0.28C448.85 -2.1 480.84 15.73 493.1 42.34C500.09 39.35 507.84 37.4 516.11 36.83C543.82 34.98 568.68 49 577.9 69.82C587.64 62.12 600.42 57.03 614.78 56.03C615.24 56 615.68 56.02 616.14 56C627.48 33.38 653.09 16.72 684.3 14.59C700.55 13.5 716.05 16.49 729.36 22.58C739.34 10.17 755.69 1.52 774.84 0.24C805.73 -1.85 833.06 15.83 839.2 40.64C849.13 31.89 862.77 26.05 878.26 25C886.87 24.43 895.23 25.38 902.88 27.61C912.58 13.74 929.93 3.9 950.46 2.47C982.5 0.33 1010.63 19.34 1015.39 45.53C1027.89 27.14 1050.65 14.02 1077.74 12.21C1111.54 9.93 1142.05 25.86 1155.6 50.14C1164.44 37.07 1180.6 27.8 1199.8 26.52C1229.84 24.48 1256.17 42.73 1259.78 67.59C1260.3 67.54 1260.78 67.44 1261.25 67.44C1283.45 65.92 1303.6 75.52 1314.11 90.64C1316.34 90.16 1318.62 89.83 1320.95 89.64C1335.45 88.69 1348.9 93.82 1357.6 102.47C1362.54 107.42 1366.01 113.45 1367.24 120.2C1369.57 119.58 1372 119.16 1374.52 118.97C1391.86 117.78 1407.03 128.61 1408.45 143.11C1409.83 157.65 1396.9 170.39 1379.6 171.53Z" />
		</g>
	</g>
</svg>