<svg version="1.2" baseProfile="tiny-ps" xmlns="http://www.w3.org/2000/svg" viewBox="0 0 1296 864" width="1296" height="864">
	<title>25499-ai</title>
	<style>
		tspan { white-space:pre }
		.shp0 { fill: #4c3041 } 
		.shp1 { fill: #b37197 } 
		.shp2 { fill: #ffa1d8 } 
	</style>
	<g id="Layer 1">
		<g id="&lt;Group&gt;">
			<g id="&lt;Clip Group&gt;">
				<g id="&lt;Group&gt;">
					<path id="&lt;Path&gt;" class="shp0" d="M1379.6 377.46C1372.61 377.94 1365.96 376.46 1360.45 373.56C1355.69 393.62 1335.64 409.45 1310.11 411.16C1296.52 412.11 1283.74 408.88 1273.42 402.79C1267.29 414.77 1253.65 423.61 1237.01 424.75C1224.75 425.56 1213.25 422 1204.74 415.63C1197.66 432.69 1179.17 445.52 1156.36 447.04C1134.49 448.52 1114.58 439.2 1103.98 424.47C1096.8 430.27 1087.3 434.07 1076.6 434.78C1067.38 435.4 1058.59 433.64 1051.08 430.12C1045.66 453.89 1021.85 472.71 991.67 474.75C969.05 476.27 948.13 468 934.92 454.22C921.9 466.53 903.36 474.85 882.26 476.27C846.56 478.65 814.58 460.83 802.31 434.21C795.33 437.21 787.58 439.15 779.31 439.72C751.6 441.58 726.74 427.56 717.52 406.74C707.78 414.44 694.99 419.52 680.64 420.52C680.18 420.55 679.73 420.54 679.28 420.56C667.94 443.18 642.33 459.84 611.12 461.96C594.86 463.06 579.37 460.06 566.06 453.98C556.08 466.38 539.73 475.04 520.58 476.32C489.68 478.41 462.35 460.73 456.22 435.92C446.29 444.66 432.65 450.51 417.15 451.56C408.55 452.13 400.18 451.18 392.53 448.94C382.84 462.82 365.49 472.66 344.96 474.08C312.92 476.22 284.78 457.21 280.03 431.02C267.53 449.42 244.76 462.54 217.67 464.34C183.88 466.62 153.37 450.7 139.82 426.41C130.98 439.48 114.82 448.75 95.62 450.03C65.58 452.08 39.25 433.83 35.64 408.97C35.11 409.02 34.64 409.11 34.16 409.11C11.97 410.63 -8.19 401.03 -18.69 385.92C-20.92 386.39 -23.21 386.73 -25.53 386.92C-40.03 387.87 -53.48 382.73 -62.18 374.08C-67.12 369.14 -70.59 363.1 -71.83 356.36C-74.16 356.97 -76.58 357.4 -79.1 357.59C-96.45 358.78 -111.61 347.94 -113.04 333.45C-114.41 318.9 -101.49 306.16 -84.19 305.02C-77.2 304.55 -70.54 306.02 -65.03 308.92C-60.28 288.86 -40.22 273.04 -14.7 271.33C-1.1 270.38 11.68 273.61 22 279.69C28.13 267.71 41.77 258.87 58.4 257.73C70.66 256.92 82.17 260.49 90.67 266.86C97.76 249.79 116.25 236.96 139.06 235.44C160.92 233.97 180.84 243.28 191.44 258.02C198.61 252.22 208.12 248.42 218.81 247.7C228.03 247.09 236.83 248.84 244.34 252.36C249.75 228.6 273.57 209.78 303.75 207.73C326.37 206.21 347.28 214.48 360.5 228.26C373.52 215.95 392.06 207.64 413.16 206.21C448.85 203.83 480.84 221.66 493.1 248.27C500.09 245.28 507.84 243.33 516.11 242.76C543.82 240.91 568.68 254.93 577.9 275.75C587.64 268.05 600.42 262.96 614.78 261.96C615.24 261.93 615.68 261.95 616.14 261.93C627.48 239.31 653.09 222.64 684.3 220.52C700.55 219.43 716.05 222.42 729.36 228.5C739.34 216.1 755.69 207.45 774.84 206.17C805.73 204.08 833.06 221.76 839.2 246.57C849.13 237.82 862.77 231.97 878.26 230.93C886.87 230.36 895.23 231.31 902.88 233.54C912.58 219.66 929.93 209.83 950.46 208.4C982.5 206.26 1010.63 225.27 1015.39 251.46C1027.89 233.07 1050.65 219.95 1077.74 218.14C1111.54 215.86 1142.05 231.78 1155.6 256.07C1164.44 243 1180.6 233.73 1199.8 232.45C1229.84 230.41 1256.17 248.66 1259.78 273.52C1260.3 273.47 1260.78 273.37 1261.25 273.37C1283.45 271.85 1303.6 281.45 1314.11 296.57C1316.34 296.09 1318.62 295.76 1320.95 295.57C1335.45 294.62 1348.9 299.75 1357.6 308.4C1362.54 313.34 1366.01 319.38 1367.24 326.13C1369.57 325.51 1372 325.08 1374.52 324.89C1391.86 323.71 1407.03 334.54 1408.45 349.04C1409.83 363.58 1396.9 376.32 1379.6 377.46Z" />
					<path id="&lt;Path&gt;" class="shp1" d="M-55.86 305.33C-55.86 330.36 -39.17 352.14 -14.57 363.25C-3.51 368.2 9.1 371.01 22.53 371.01C42.52 371.01 60.71 364.66 74.54 354.33C82.69 389.2 119.26 415.5 163.21 415.5C188.58 415.5 211.48 406.72 227.92 392.6C244.03 405.21 265.62 412.97 289.43 412.97C339.35 412.97 379.81 379.07 379.81 337.25C379.81 334.53 379.66 331.91 379.32 329.25C393.68 344.09 415.61 353.6 440.15 353.6C467.32 353.6 491.19 342.05 505.25 324.49C519.52 336.96 539.6 344.77 561.86 344.77C583.3 344.77 602.68 337.55 616.82 325.85C621.97 325.12 626.95 323.97 631.7 322.41C643.85 347.31 671.72 366 705.52 368.67C727.23 370.38 747.6 365.13 763.62 355.15C771.01 382.98 799.33 405.12 834.78 407.91C866.55 410.42 895.08 396.66 909.12 374.8C922.32 388.2 941.54 397.4 963.55 399.14C980.23 400.45 995.96 397.26 1009.21 390.82C1018.44 407.65 1037.9 420.13 1061.21 421.97C1086.35 423.95 1108.87 413.08 1119.91 395.8C1127.05 407.11 1140.65 415.39 1156.85 416.66C1181.32 418.59 1202.48 403.86 1204.82 383.51C1251.35 384.02 1290.32 354.44 1293.44 314.83C1294.38 302.99 1291.92 291.55 1286.9 281.13C1320.91 276.32 1347.58 252.83 1349.97 222.51C1351.93 197.55 1337.01 174.53 1313.36 161.52C1302.73 155.72 1290.38 151.92 1276.98 150.87C1257.06 149.29 1238.42 154.2 1223.83 163.41C1218.44 128 1184.05 98.92 1140.23 95.46C1114.94 93.47 1091.43 100.42 1073.92 113.2C1058.86 99.36 1037.95 89.93 1014.2 88.06C964.44 84.13 921.45 114.76 918.16 156.44C917.94 159.15 917.88 161.77 918.01 164.46C904.87 148.53 883.75 137.33 859.28 135.4C832.2 133.27 807.5 142.9 792.1 159.3C778.86 145.75 759.45 136.39 737.26 134.64C720.77 133.34 705.18 136.41 692.01 142.73C690.12 142.61 688.22 142.53 686.29 142.53C674.07 142.53 662.57 145.01 652.33 149.28C638.27 125.41 609.02 108.96 575.11 108.96C553.33 108.96 533.44 115.8 518.25 127.01C508.7 99.84 478.72 80 443.16 80C411.29 80 383.93 95.96 371.66 118.86C357.44 106.54 337.56 98.87 315.48 98.87C298.75 98.87 283.32 103.29 270.61 110.76C260.09 94.7 239.71 83.79 216.33 83.79C191.11 83.79 169.52 96.4 159.87 114.49C151.86 103.77 137.65 96.59 121.4 96.59C96.85 96.59 76.91 112.94 76.19 133.41C29.76 136.57 -6.77 169.12 -6.77 208.85C-6.77 220.73 -3.42 231.94 2.4 241.93C-31.12 249.4 -55.86 274.92 -55.86 305.33Z" />
					<path id="&lt;Path&gt;" class="shp2" d="M1379.6 206.53C1372.61 207.01 1365.96 205.53 1360.45 202.63C1355.69 222.69 1335.64 238.52 1310.11 240.23C1296.52 241.18 1283.74 237.95 1273.42 231.86C1267.29 243.84 1253.65 252.68 1237.01 253.82C1224.75 254.63 1213.25 251.07 1204.74 244.7C1197.66 261.76 1179.17 274.59 1156.36 276.11C1134.49 277.59 1114.58 268.27 1103.98 253.54C1096.8 259.34 1087.3 263.14 1076.6 263.85C1067.38 264.47 1058.59 262.71 1051.08 259.19C1045.66 282.96 1021.85 301.78 991.67 303.82C969.05 305.35 948.13 297.08 934.92 283.29C921.9 295.6 903.36 303.92 882.26 305.35C846.56 307.72 814.58 289.9 802.31 263.28C795.33 266.28 787.58 268.22 779.31 268.8C751.6 270.65 726.74 256.63 717.52 235.81C707.78 243.51 694.99 248.6 680.64 249.59C680.18 249.62 679.73 249.61 679.28 249.63C667.94 272.25 642.33 288.91 611.12 291.04C594.86 292.13 579.37 289.13 566.06 283.05C556.08 295.46 539.73 304.11 520.58 305.39C489.68 307.48 462.35 289.8 456.22 264.99C446.29 273.73 432.65 279.58 417.15 280.63C408.55 281.2 400.18 280.25 392.53 278.01C382.84 291.89 365.49 301.73 344.96 303.16C312.92 305.29 284.78 286.28 280.03 260.09C267.53 278.49 244.76 291.61 217.67 293.41C183.88 295.69 153.37 279.77 139.82 255.48C130.98 268.55 114.82 277.82 95.62 279.11C65.58 281.15 39.25 262.9 35.64 238.04C35.11 238.09 34.64 238.18 34.16 238.18C11.97 239.7 -8.19 230.1 -18.69 214.99C-20.92 215.46 -23.21 215.8 -25.53 215.99C-40.03 216.94 -53.48 211.8 -62.18 203.15C-67.12 198.21 -70.59 192.18 -71.83 185.43C-74.16 186.04 -76.58 186.47 -79.1 186.66C-96.45 187.85 -111.61 177.01 -113.04 162.52C-114.41 147.97 -101.49 135.23 -84.19 134.09C-77.2 133.62 -70.54 135.09 -65.03 137.99C-60.28 117.93 -40.22 102.11 -14.7 100.4C-1.1 99.45 11.68 102.68 22 108.76C28.13 96.78 41.77 87.94 58.4 86.8C70.66 85.99 82.17 89.56 90.67 95.93C97.76 78.87 116.25 66.03 139.06 64.51C160.92 63.04 180.84 72.35 191.44 87.09C198.61 81.29 208.12 77.49 218.81 76.77C228.03 76.16 236.83 77.91 244.34 81.43C249.75 57.67 273.57 38.85 303.75 36.8C326.37 35.28 347.28 43.55 360.5 57.33C373.52 45.02 392.06 36.71 413.16 35.28C448.85 32.9 480.84 50.73 493.1 77.34C500.09 74.35 507.84 72.4 516.11 71.83C543.82 69.98 568.68 84 577.9 104.82C587.64 97.12 600.42 92.03 614.78 91.03C615.24 91 615.68 91.02 616.14 91C627.48 68.38 653.09 51.72 684.3 49.59C700.55 48.5 716.05 51.49 729.36 57.58C739.34 45.17 755.69 36.52 774.84 35.24C805.73 33.15 833.06 50.83 839.2 75.64C849.13 66.89 862.77 61.05 878.26 60C886.87 59.43 895.23 60.38 902.88 62.61C912.58 48.74 929.93 38.9 950.46 37.47C982.5 35.33 1010.63 54.34 1015.39 80.53C1027.89 62.14 1050.65 49.02 1077.74 47.21C1111.54 44.93 1142.05 60.86 1155.6 85.14C1164.44 72.07 1180.6 62.8 1199.8 61.52C1229.84 59.48 1256.17 77.73 1259.78 102.59C1260.3 102.54 1260.78 102.44 1261.25 102.44C1283.45 100.92 1303.6 110.52 1314.11 125.64C1316.34 125.16 1318.62 124.83 1320.95 124.64C1335.45 123.69 1348.9 128.82 1357.6 137.47C1362.54 142.42 1366.01 148.45 1367.24 155.2C1369.57 154.58 1372 154.16 1374.52 153.97C1391.86 152.78 1407.03 163.61 1408.45 178.11C1409.83 192.65 1396.9 205.39 1379.6 206.53Z" />
				</g>
			</g>
			<g id="&lt;Group&gt;">
				<path id="&lt;Path&gt;" class="shp2" d="M171.17 540.44L181.69 560.67L204.18 564.42L188.19 580.68L191.57 603.23L171.17 593.05L150.77 603.23L154.15 580.68L138.16 564.42L160.65 560.67L171.17 540.44Z" />
				<g id="&lt;Group&gt;">
					<path id="&lt;Path&gt;" class="shp2" d="M171.92 548.66L170.42 548.66L170.42 80.63L171.92 80.63L171.92 548.66Z" />
				</g>
			</g>
			<g id="&lt;Group&gt;">
				<path id="&lt;Path&gt;" class="shp2" d="M269.88 459.03L276.94 472.61L292.04 475.13L281.31 486.04L283.58 501.18L269.88 494.34L256.18 501.18L258.45 486.04L247.72 475.13L262.82 472.61L269.88 459.03Z" />
				<g id="&lt;Group&gt;">
					<path id="&lt;Path&gt;" class="shp2" d="M270.63 464.54L269.13 464.54L269.13 150.34L270.63 150.34L270.63 464.54Z" />
				</g>
			</g>
			<g id="&lt;Group&gt;">
				<path id="&lt;Path&gt;" class="shp2" d="M1155.7 525.94L1165.54 544.86L1186.57 548.37L1171.62 563.57L1174.78 584.65L1155.7 575.13L1136.63 584.65L1139.79 563.57L1124.84 548.37L1145.87 544.86L1155.7 525.94Z" />
				<g id="&lt;Group&gt;">
					<path id="&lt;Path&gt;" class="shp2" d="M1156.45 533.63L1154.95 533.63L1154.95 95.97L1156.45 95.97L1156.45 533.63Z" />
				</g>
			</g>
			<g id="&lt;Group&gt;">
				<path id="&lt;Path&gt;" class="shp2" d="M1220.88 440.02L1227.92 453.55L1242.96 456.06L1232.27 466.94L1234.53 482.02L1220.88 475.21L1207.24 482.02L1209.5 466.94L1198.8 456.06L1213.85 453.55L1220.88 440.02Z" />
				<g id="&lt;Group&gt;">
					<path id="&lt;Path&gt;" class="shp2" d="M1221.63 445.52L1220.13 445.52L1220.13 132.46L1221.63 132.46L1221.63 445.52Z" />
				</g>
			</g>
			<g id="&lt;Group&gt;">
				<path id="&lt;Path&gt;" class="shp2" d="M1064.14 482.49L1071.18 496.03L1086.22 498.54L1075.53 509.41L1077.79 524.49L1064.14 517.68L1050.5 524.49L1052.76 509.41L1042.06 498.54L1057.11 496.03L1064.14 482.49Z" />
				<g id="&lt;Group&gt;">
					<path id="&lt;Path&gt;" class="shp2" d="M1064.89 487.99L1063.39 487.99L1063.39 174.93L1064.89 174.93L1064.89 487.99Z" />
				</g>
			</g>
			<g id="&lt;Group&gt;">
				<path id="&lt;Path&gt;" class="shp2" d="M74.64 468.37L81.68 481.9L96.72 484.41L86.03 495.28L88.29 510.37L74.64 503.55L61 510.37L63.26 495.28L52.56 484.41L67.61 481.9L74.64 468.37Z" />
				<g id="&lt;Group&gt;">
					<path id="&lt;Path&gt;" class="shp2" d="M75.39 473.87L73.89 473.87L73.89 160.81L75.39 160.81L75.39 473.87Z" />
				</g>
			</g>
		</g>
	</g>
</svg>