<svg xmlns="http://www.w3.org/2000/svg"
     width="16.9306in" height="16.9306in"
     viewBox="0 0 1219 1219">
  <path id="Barnslig Logo"
        fill="black" stroke="black" stroke-width="1"
        d="M 612.02,158.83
           C 601.33,162.82 606.91,175.15 614.98,173.26
             622.91,171.40 623.64,158.57 612.02,158.83 Z
           M 640.04,159.69
           C 629.55,164.35 635.35,175.74 643.98,173.68
             652.72,171.60 650.82,158.58 640.04,159.69 Z
           M 581.11,161.02
           C 571.67,168.67 581.87,177.10 588.85,172.98
             592.60,170.77 592.98,164.37 589.69,161.60
             587.07,159.40 583.99,160.03 581.11,161.02 Z
           M 554.04,162.75
           C 544.34,168.34 550.58,179.51 558.98,176.40
             566.75,173.52 564.97,160.67 554.04,162.75 Z
           M 667.11,162.85
           C 658.83,168.25 664.77,178.10 671.98,176.53
             677.50,175.33 679.73,168.36 675.69,164.31
             673.03,161.65 670.37,161.96 667.11,162.85 Z
           M 696.04,166.75
           C 687.46,171.69 690.97,182.16 699.98,180.76
             709.01,179.36 707.55,164.56 696.04,166.75 Z
           M 525.19,167.74
           C 516.84,173.21 522.55,184.56 530.96,181.26
             538.93,178.13 536.66,165.08 525.19,167.74 Z
           M 725.01,172.67
           C 714.44,176.59 719.76,189.18 727.98,187.26
             736.29,185.31 736.02,172.40 725.01,172.67 Z
           M 499.02,173.61
           C 490.17,177.11 492.19,186.70 499.02,188.02
             509.75,190.09 511.71,172.64 499.02,173.61 Z
           M 752.04,180.74
           C 741.37,185.26 747.93,196.59 755.00,195.32
             763.50,193.80 763.85,179.90 752.04,180.74 Z
           M 470.11,182.74
           C 461.78,188.02 467.72,199.11 475.90,195.84
             483.54,192.78 481.87,179.93 470.11,182.74 Z
           M 779.02,190.69
           C 767.96,195.39 774.75,206.79 782.96,204.57
             790.34,202.56 789.61,189.61 779.02,190.69 Z
           M 445.02,191.75
           C 434.23,196.07 440.05,208.23 447.98,206.39
             456.15,204.49 456.31,191.18 445.02,191.75 Z
           M 803.11,203.02
           C 793.99,210.41 803.19,219.31 809.94,215.81
             816.85,212.23 814.76,199.07 803.11,203.02 Z
           M 418.04,203.75
           C 408.55,209.22 414.72,219.22 421.98,217.67
             430.36,215.88 429.55,201.56 418.04,203.75 Z
           M 829.06,215.74
           C 819.32,221.62 827.81,232.03 834.91,229.13
             842.72,225.93 840.84,213.13 829.06,215.74 Z
           M 394.00,216.76
           C 382.69,220.52 388.51,232.42 395.98,231.50
             404.50,230.46 405.55,217.05 394.00,216.76 Z
           M 856.00,229.86
           C 844.74,232.28 848.97,244.81 857.00,244.11
             865.51,243.36 867.24,230.82 856.00,229.86 Z
           M 370.00,231.76
           C 367.02,232.74 364.89,233.74 363.78,237.02
             362.09,242.03 366.83,247.38 372.00,246.47
             379.74,245.09 381.41,232.05 370.00,231.76 Z
           M 877.06,246.74
           C 868.15,252.12 874.64,262.87 881.98,260.24
             889.95,257.39 889.11,244.07 877.06,246.74 Z
           M 344.06,249.02
           C 335.75,255.50 342.32,264.09 348.98,262.67
             354.64,261.46 356.87,253.58 352.43,249.74
             349.83,247.48 346.97,248.05 344.06,249.02 Z
           M 901.02,263.76
           C 891.10,267.14 894.85,279.19 902.99,278.42
             911.76,277.60 912.50,264.05 901.02,263.76 Z
           M 322.06,267.02
           C 313.68,273.56 320.44,281.95 326.98,280.53
             336.11,278.54 334.02,263.08 322.06,267.02 Z
           M 920.11,283.74
           C 911.99,288.89 917.75,299.10 924.98,297.53
             930.71,296.28 932.71,288.66 928.35,284.74
             925.94,282.56 922.94,283.05 920.11,283.74 Z
           M 302.02,285.75
           C 292.13,291.27 298.72,302.51 306.96,299.40
             314.42,296.58 313.19,283.65 302.02,285.75 Z
           M 941.02,303.75
           C 931.15,309.26 937.84,320.42 945.98,317.40
             953.74,314.52 952.01,301.68 941.02,303.75 Z
           M 281.06,307.02
           C 272.81,313.46 279.53,321.92 286.00,320.53
             292.50,319.13 293.45,311.22 289.43,307.74
             286.83,305.48 283.98,306.05 281.06,307.02 Z
           M 958.13,326.02
           C 949.54,333.24 958.26,342.17 964.96,338.81
             973.13,334.71 969.56,322.03 958.13,326.02 Z
           M 262.15,329.02
           C 254.78,335.56 262.04,345.27 268.96,341.81
             277.41,337.58 273.50,325.03 262.15,329.02 Z
           M 975.23,349.02
           C 967.69,355.97 975.29,365.48 982.78,361.42
             987.10,359.07 987.54,352.65 983.72,349.60
             981.04,347.45 978.14,347.97 975.23,349.02 Z
           M 248.01,350.75
           C 237.41,355.00 242.81,366.65 250.00,365.46
             258.12,364.12 259.38,350.17 248.01,350.75 Z
           M 993.02,371.78
           C 990.29,373.23 988.09,374.64 987.54,378.00
             986.60,383.73 992.96,387.34 997.89,385.26
             1004.21,382.60 1003.12,370.39 993.02,371.78 Z
           M 232.04,374.74
           C 221.60,379.16 227.27,390.76 234.98,389.32
             242.95,387.84 243.52,373.92 232.04,374.74 Z
           M 1006.05,396.74
           C 996.03,402.70 1003.99,413.52 1011.89,410.26
             1019.03,407.32 1017.09,394.40 1006.05,396.74 Z
           M 219.02,399.72
           C 208.08,402.62 212.05,414.86 221.00,413.84
             229.42,412.88 230.11,400.19 219.02,399.72 Z
           M 1018.11,422.86
           C 1009.50,428.45 1016.27,439.23 1023.96,436.26
             1031.95,433.16 1029.62,419.87 1018.11,422.86 Z
           M 205.04,425.75
           C 196.14,430.88 200.51,441.18 208.98,439.71
             217.97,438.14 216.76,423.52 205.04,425.75 Z
           M 1030.02,448.78
           C 1020.45,454.00 1026.38,465.06 1033.98,462.94
             1041.99,460.70 1041.26,447.13 1030.02,448.78 Z
           M 193.23,453.02
           C 185.82,459.84 193.14,469.26 199.95,465.81
             207.89,461.78 204.55,448.93 193.23,453.02 Z
           M 1039.02,475.78
           C 1028.34,481.55 1035.91,492.44 1043.96,489.40
             1051.45,486.57 1049.71,474.21 1039.02,475.78 Z
           M 185.11,479.86
           C 176.82,485.24 182.78,495.11 189.98,493.53
             195.44,492.33 197.28,485.39 193.49,481.43
             190.96,478.78 188.29,479.03 185.11,479.86 Z
           M 1045.19,503.74
           C 1037.00,509.12 1042.54,519.26 1049.98,517.67
             1055.45,516.50 1057.74,509.37 1053.69,505.31
             1051.09,502.72 1048.41,502.95 1045.19,503.74 Z
           M 179.04,506.78
           C 169.34,512.24 175.61,523.42 182.98,521.17
             191.66,518.53 189.69,505.30 179.04,506.78 Z
           M 1051.04,531.74
           C 1041.25,537.44 1048.76,547.90 1055.98,545.39
             1064.45,542.44 1062.90,529.13 1051.04,531.74 Z
           M 174.02,534.78
           C 171.29,536.23 169.09,537.64 168.54,541.00
             167.73,545.90 173.27,550.62 177.98,549.17
             185.83,546.76 184.90,533.29 174.02,534.78 Z
           M 169.11,563.74
           C 160.94,568.92 166.56,579.14 173.98,577.53
             179.75,576.27 181.33,569.12 178.26,565.57
             175.78,562.70 172.40,562.95 169.11,563.74 Z
           M 169.04,591.61
           C 158.74,595.87 164.07,607.84 172.98,605.68
             180.28,603.92 180.08,590.76 169.04,591.61 Z
           M 1057.04,616.75
           C 1047.32,622.35 1053.80,633.43 1061.98,630.40
             1069.76,627.52 1067.97,614.67 1057.04,616.75 Z
           M 168.05,620.74
           C 158.07,626.68 166.57,637.19 173.90,634.13
             181.23,631.07 179.94,618.11 168.05,620.74 Z
           M 1056.01,644.92
           C 1046.80,649.25 1049.91,658.20 1056.01,659.53
             1066.17,661.74 1069.37,644.16 1056.01,644.92 Z
           M 1051.11,673.74
           C 1041.74,679.61 1048.99,690.36 1056.96,687.26
             1064.82,684.20 1062.84,671.09 1051.11,673.74 Z
           M 1046.04,701.74
           C 1035.87,707.65 1043.92,718.45 1051.81,715.13
             1056.39,713.20 1057.35,705.94 1053.57,702.74
             1051.19,700.72 1048.78,701.14 1046.04,701.74 Z
           M 1041.00,728.86
           C 1029.70,731.29 1033.91,743.95 1042.00,743.59
             1049.68,743.25 1052.92,729.87 1041.00,728.86 Z
           M 187.05,732.74
           C 177.25,738.57 184.99,749.53 192.89,746.26
             197.17,744.49 198.19,737.95 195.26,734.57
             192.92,731.86 190.17,732.07 187.05,732.74 Z
           M 1032.00,755.77
           C 1021.19,758.77 1024.88,769.19 1031.02,770.53
             1040.32,772.56 1044.60,756.54 1032.00,755.77 Z
           M 196.05,759.74
           C 186.42,765.47 193.90,776.42 201.96,773.26
             209.74,770.21 207.51,757.21 196.05,759.74 Z
           M 1019.10,782.75
           C 1009.38,788.69 1016.93,799.54 1024.89,796.26
             1031.64,793.48 1030.89,780.34 1019.10,782.75 Z
           M 209.00,785.76
           C 197.26,789.64 203.46,801.38 211.00,800.24
             218.58,799.09 220.05,786.04 209.00,785.76 Z
           M 1006.11,808.85
           C 997.88,814.21 1003.95,824.06 1010.98,822.53
             1016.75,821.27 1018.33,814.12 1015.26,810.57
             1012.75,807.66 1009.41,807.95 1006.11,808.85 Z
           M 219.11,812.03
           C 210.96,818.61 217.50,826.92 224.00,825.53
             233.59,823.46 230.82,808.24 219.11,812.03 Z
           M 992.11,833.74
           C 984.10,838.82 989.51,848.88 996.98,847.34
             1003.42,846.01 1004.36,837.96 1000.57,834.74
             998.06,832.60 995.01,833.04 992.11,833.74 Z
           M 233.11,837.02
           C 224.42,844.06 233.15,853.38 239.95,849.82
             247.63,845.80 244.35,833.20 233.11,837.02 Z
           M 979.00,856.76
           C 967.39,860.62 973.66,872.67 981.00,871.46
             988.39,870.24 990.20,857.04 979.00,856.76 Z
           M 251.04,859.67
           C 240.62,863.66 245.67,876.20 253.98,874.26
             262.13,872.35 262.35,859.39 251.04,859.67 Z
           M 961.04,879.69
           C 950.03,884.62 957.68,896.46 964.96,894.17
             971.82,892.01 972.33,878.53 961.04,879.69 Z
           M 267.05,882.87
           C 256.96,888.97 265.10,899.57 272.89,896.40
             279.38,893.76 278.24,880.36 267.05,882.87 Z
           M 942.02,901.75
           C 932.18,907.24 938.62,918.49 946.98,915.40
             954.73,912.53 953.01,899.68 942.02,901.75 Z
           M 285.11,904.85
           C 276.83,910.25 282.77,920.10 289.98,918.53
             295.50,917.33 297.73,910.36 293.69,906.31
             291.03,903.65 288.37,903.96 285.11,904.85 Z
           M 924.00,921.90
           C 913.81,924.79 916.44,935.09 923.02,936.53
             932.11,938.51 936.82,922.78 924.00,921.90 Z
           M 306.02,924.75
           C 296.36,930.14 302.77,940.19 310.00,938.67
             318.72,936.83 317.60,922.57 306.02,924.75 Z
           M 900.06,942.02
           C 891.79,948.48 898.57,956.93 904.98,955.53
             914.11,953.54 912.02,938.08 900.06,942.02 Z
           M 328.02,943.61
           C 317.12,947.92 323.52,959.90 331.91,957.57
             338.90,955.61 339.25,942.76 328.02,943.61 Z
           M 877.15,960.02
           C 869.80,966.53 877.01,976.29 883.96,972.81
             892.58,968.50 888.21,956.20 877.15,960.02 Z
           M 349.11,961.74
           C 340.59,967.14 347.05,978.09 354.95,975.09
             360.22,973.10 361.24,966.04 356.77,962.60
             354.24,960.64 351.93,961.06 349.11,961.74 Z
           M 855.04,975.74
           C 845.73,981.15 852.05,991.02 859.00,989.53
             864.62,988.32 867.13,980.61 862.57,976.74
             860.19,974.72 857.78,975.14 855.04,975.74 Z
           M 373.04,977.74
           C 362.99,983.58 370.82,993.91 377.98,991.39
             385.31,988.80 385.01,975.18 373.04,977.74 Z
           M 830.19,990.74
           C 821.91,996.17 827.67,1006.12 834.98,1004.53
             841.10,1003.20 842.67,995.37 837.77,991.60
             835.26,989.66 832.99,990.05 830.19,990.74 Z
           M 396.13,993.02
           C 387.87,1000.04 396.86,1008.86 402.96,1005.94
             411.13,1002.02 407.88,988.92 396.13,993.02 Z
           M 805.10,1003.74
           C 795.72,1009.53 802.73,1020.53 810.95,1017.26
             818.35,1014.32 816.91,1001.08 805.10,1003.74 Z
           M 424.02,1004.75
           C 413.05,1009.14 419.34,1020.84 426.98,1019.47
             434.76,1018.07 435.69,1004.16 424.02,1004.75 Z
           M 778.13,1016.02
           C 769.44,1023.32 778.77,1031.94 784.95,1028.81
             792.76,1024.85 789.77,1011.96 778.13,1016.02 Z
           M 449.04,1016.74
           C 438.69,1022.76 447.26,1033.47 454.81,1030.26
             461.48,1027.43 461.05,1014.10 449.04,1016.74 Z
           M 753.02,1024.76
           C 742.46,1030.61 749.81,1041.84 757.91,1038.82
             765.95,1035.81 763.68,1022.88 753.02,1024.76 Z
           M 475.11,1026.74
           C 465.99,1032.52 474.27,1043.32 481.94,1039.65
             487.03,1037.21 486.72,1030.41 483.57,1027.74
             481.06,1025.60 478.01,1026.04 475.11,1026.74 Z
           M 724.19,1033.74
           C 715.37,1039.54 723.24,1049.31 729.98,1047.07
             735.31,1045.30 737.60,1038.35 732.77,1034.60
             730.12,1032.54 727.16,1032.98 724.19,1033.74 Z
           M 502.13,1035.02
           C 493.13,1042.60 503.25,1051.22 509.89,1047.11
             517.14,1042.62 513.02,1031.22 502.13,1035.02 Z
           M 532.02,1039.78
           C 529.29,1041.23 527.09,1042.64 526.54,1046.00
             525.73,1050.90 531.21,1055.81 535.98,1054.22
             544.27,1051.46 542.68,1038.32 532.02,1039.78 Z
           M 696.13,1040.02
           C 687.28,1047.45 696.68,1057.00 703.79,1052.82
             710.77,1048.72 707.46,1036.14 696.13,1040.02 Z
           M 670.04,1043.69
           C 659.49,1048.38 665.44,1059.87 673.96,1057.57
             681.94,1055.41 680.70,1042.59 670.04,1043.69 Z
           M 558.13,1045.02
           C 549.19,1052.53 559.27,1061.47 565.87,1057.68
             572.97,1053.60 569.61,1041.01 558.13,1045.02 Z
           M 588.04,1046.75
           C 577.70,1052.70 585.90,1063.70 593.81,1060.26
             600.33,1057.43 599.27,1044.62 588.04,1046.75 Z
           M 640.06,1047.02
           C 630.62,1054.38 639.88,1063.74 646.94,1059.97
             654.06,1056.18 651.09,1043.38 640.06,1047.02 Z
           M 616.11,1047.74
           C 607.53,1053.18 614.20,1064.40 621.91,1061.14
             629.71,1057.84 627.86,1044.93 616.11,1047.74 Z
           M 429.00,862.00
           C 433.56,868.37 447.70,881.70 454.00,888.00
             455.82,889.82 462.62,895.76 462.40,898.24
             462.28,899.59 455.39,906.05 454.00,907.49
             447.83,913.91 432.19,927.26 429.00,934.00
             429.00,934.00 801.00,934.00 801.00,934.00
             798.17,928.02 792.63,923.63 788.00,919.00
             782.19,913.19 772.16,902.41 766.00,898.00
             766.00,898.00 789.00,875.00 789.00,875.00
             789.00,875.00 801.00,862.00 801.00,862.00
             801.00,862.00 761.00,862.00 761.00,862.00
             761.00,862.00 679.00,862.00 679.00,862.00
             679.00,862.00 429.00,862.00 429.00,862.00 Z
           M 501.00,888.22
           C 501.00,888.22 501.00,903.00 501.00,903.00
             513.05,893.25 500.09,880.03 488.00,884.74
             476.42,889.25 477.43,903.16 488.00,908.08
             494.76,911.22 501.11,907.34 508.00,907.00
             495.54,919.20 476.71,913.26 475.20,898.00
             474.06,886.44 483.29,879.79 494.00,880.02
             498.11,880.10 501.49,880.71 504.79,883.56
             510.60,888.86 512.60,900.08 504.79,904.77
             500.23,907.61 498.03,905.73 495.00,905.73
             492.11,905.61 490.03,907.24 487.11,905.73
             480.86,902.68 481.98,890.42 490.00,888.22
             493.85,887.50 494.57,889.60 501.00,888.22 Z
           M 642.00,888.00
           C 645.11,897.47 656.15,892.23 654.89,905.00
             653.72,916.82 635.78,914.13 633.81,908.78
             632.80,906.76 633.47,904.94 633.81,903.00
             639.93,905.35 641.58,906.50 648.00,905.00
             648.00,905.00 648.00,903.00 648.00,903.00
             644.16,901.37 638.11,899.35 635.74,895.89
             631.99,890.42 635.97,882.34 644.00,881.64
             646.18,881.45 650.85,882.24 652.68,883.43
             654.99,884.92 654.90,887.63 652.68,888.81
             650.86,889.77 644.52,888.21 642.00,888.00 Z
           M 715.00,903.00
           C 708.99,900.77 709.07,900.28 709.00,894.00
             709.00,894.00 723.00,895.00 723.00,895.00
             723.00,899.44 723.99,907.32 720.69,910.57
             714.22,916.94 693.05,914.96 694.04,896.00
             694.59,885.55 703.21,880.29 713.00,881.77
             715.87,882.21 720.36,883.14 721.60,886.17
             722.49,888.35 721.04,890.03 718.89,890.48
             715.67,890.86 710.86,887.23 706.11,890.48
             697.12,896.97 706.24,911.14 715.00,903.00 Z
           M 515.00,914.00
           C 515.00,914.00 515.00,882.00 515.00,882.00
             520.02,882.00 531.86,881.23 535.57,884.58
             539.65,888.28 536.50,892.94 536.71,896.00
             536.93,899.10 539.84,902.23 538.68,906.98
             536.61,915.47 521.70,914.00 515.00,914.00 Z
           M 550.00,908.00
           C 549.38,909.95 549.11,911.57 546.87,912.34
             543.22,913.61 541.30,910.34 541.89,907.00
             541.89,907.00 549.70,889.00 549.70,889.00
             550.67,886.89 551.74,883.50 554.21,882.78
             557.34,881.87 559.42,884.72 560.74,887.05
             562.18,889.59 569.09,904.75 569.42,907.00
             569.91,910.41 567.93,913.51 564.20,912.35
             562.14,911.70 561.11,909.54 558.79,908.59
             556.82,907.79 552.27,908.00 550.00,908.00 Z
           M 592.00,899.00
           C 592.00,899.00 595.39,905.00 595.39,905.00
             599.30,911.77 594.31,914.11 591.29,912.72
             591.29,912.72 581.00,902.00 581.00,902.00
             581.00,910.88 581.96,912.70 573.00,914.00
             573.00,914.00 573.00,882.00 573.00,882.00
             577.47,882.00 587.28,881.41 590.96,883.31
             596.99,886.44 598.01,895.39 592.00,899.00 Z
           M 621.00,896.00
           C 621.00,886.50 619.43,882.57 629.00,882.00
             630.34,891.33 630.12,896.71 629.67,906.00
             629.50,909.44 628.79,913.49 624.15,912.65
             620.51,911.99 614.70,903.53 610.00,900.00
             610.00,911.03 611.16,912.67 602.00,914.00
             602.00,914.00 602.00,882.00 602.00,882.00
             613.20,882.55 612.57,888.57 621.00,896.00 Z
           M 668.00,907.00
           C 668.00,907.00 678.00,907.00 678.00,907.00
             677.87,908.58 677.93,910.19 676.98,911.57
             674.38,915.35 662.56,914.77 660.21,910.72
             659.13,908.87 659.48,905.24 659.34,903.00
             658.95,897.08 659.12,887.85 660.00,882.00
             660.00,882.00 666.40,883.74 666.40,883.74
             666.40,883.74 668.00,890.00 668.00,890.00
             668.00,890.00 668.00,907.00 668.00,907.00 Z
           M 690.00,882.00
           C 690.00,882.00 690.00,895.00 690.00,895.00
             690.00,895.00 690.00,903.00 690.00,903.00
             689.99,907.02 690.68,913.09 685.01,913.30
             683.87,913.34 682.77,913.12 681.99,912.22
             680.58,910.60 681.00,904.26 681.00,902.00
             681.00,885.15 679.43,882.27 690.00,882.00 Z
           M 492.00,892.00
           C 485.23,893.85 486.67,900.95 490.22,902.16
             495.55,903.96 500.35,893.95 492.00,892.00 Z
           M 726.00,907.00
           C 726.00,907.00 738.00,907.00 738.00,907.00
             738.00,907.00 748.00,907.00 748.00,907.00
             750.66,907.05 756.05,907.42 754.34,911.70
             753.29,914.34 749.31,913.98 747.00,914.00
             742.55,914.03 730.74,914.98 727.68,911.66
             726.42,910.29 726.30,908.72 726.00,907.00 Z
           M 615.00,302.00
           C 615.00,302.00 603.43,330.00 603.43,330.00
             603.43,330.00 576.00,395.00 576.00,395.00
             576.00,395.00 574.00,395.00 574.00,395.00
             574.00,395.00 561.40,373.00 561.40,373.00
             561.40,373.00 527.00,318.00 527.00,318.00
             524.09,321.96 525.00,327.26 525.00,332.00
             525.00,332.00 525.00,361.00 525.00,361.00
             525.00,361.00 524.00,376.00 524.00,376.00
             524.00,376.00 524.00,407.00 524.00,407.00
             523.98,417.82 521.11,434.81 524.00,445.00
             531.57,443.64 530.49,444.36 537.00,443.91
             537.00,443.91 565.00,441.83 565.00,441.83
             565.00,441.83 596.00,438.96 596.00,438.96
             596.00,438.96 604.00,438.96 604.00,438.96
             604.00,438.96 620.00,437.09 620.00,437.09
             620.00,437.09 661.00,434.17 661.00,434.17
             661.00,434.17 695.00,431.58 695.00,431.58
             697.54,431.24 704.57,431.30 706.05,429.40
             707.09,427.80 706.33,424.84 706.05,423.00
             706.05,423.00 704.73,409.00 704.73,409.00
             704.73,409.00 699.42,355.00 699.42,355.00
             699.42,355.00 696.08,325.00 696.08,325.00
             695.68,319.96 695.63,311.06 693.00,307.00
             693.00,307.00 679.58,330.00 679.58,330.00
             679.58,330.00 660.30,364.00 660.30,364.00
             660.30,364.00 645.00,391.00 645.00,391.00
             645.00,391.00 626.02,330.00 626.02,330.00
             626.02,330.00 617.00,302.00 617.00,302.00
             617.00,302.00 615.00,302.00 615.00,302.00 Z
           M 591.00,89.21
           C 591.00,89.21 578.00,90.17 578.00,90.17
             578.00,90.17 536.00,95.27 536.00,95.27
             506.31,99.64 468.29,109.62 440.00,119.70
             419.74,126.91 400.08,135.90 381.00,145.74
             381.00,145.74 342.00,167.31 342.00,167.31
             326.69,176.75 312.18,187.55 298.00,198.58
             229.41,251.94 177.15,319.69 141.86,399.00
             124.58,437.84 112.98,479.14 105.92,521.00
             105.92,521.00 103.28,535.00 103.28,535.00
             103.28,535.00 99.91,574.00 99.91,574.00
             99.91,574.00 99.00,584.00 99.00,584.00
             99.00,584.00 99.00,629.00 99.00,629.00
             99.00,629.00 99.91,641.00 99.91,641.00
             99.91,641.00 103.28,679.00 103.28,679.00
             112.46,747.10 136.46,813.99 171.45,873.00
             210.48,938.81 264.74,995.21 328.00,1038.04
             367.24,1064.61 413.75,1086.96 459.00,1101.02
             498.87,1113.42 540.23,1122.22 582.00,1124.04
             582.00,1124.04 593.00,1125.00 593.00,1125.00
             593.00,1125.00 639.00,1125.00 639.00,1125.00
             639.00,1125.00 652.00,1124.04 652.00,1124.04
             695.23,1122.15 741.96,1112.17 783.00,1098.49
             947.14,1043.76 1071.81,909.31 1117.58,743.00
             1125.87,712.85 1130.87,681.08 1133.96,650.00
             1133.96,650.00 1133.96,640.00 1133.96,640.00
             1133.96,640.00 1135.00,628.00 1135.00,628.00
             1135.00,628.00 1135.00,585.00 1135.00,585.00
             1135.00,585.00 1134.04,574.00 1134.04,574.00
             1132.69,542.98 1127.40,512.13 1119.87,482.00
             1115.08,462.79 1109.58,443.55 1102.58,425.00
             1060.68,314.02 980.19,217.49 877.00,158.43
             829.42,131.19 779.56,112.25 726.00,100.79
             726.00,100.79 716.00,98.28 716.00,98.28
             689.11,92.72 649.50,89.00 622.00,89.21
             622.00,89.21 591.00,89.21 591.00,89.21 Z
           M 1114.00,565.00
           C 1114.00,565.00 1106.00,565.00 1106.00,565.00
             1106.00,565.00 1091.00,566.00 1091.00,566.00
             1091.00,566.00 1046.00,567.00 1046.00,567.00
             1046.00,567.00 1029.00,568.00 1029.00,568.00
             1029.00,568.00 1010.00,569.00 1010.00,569.00
             1010.00,569.00 995.00,569.00 995.00,569.00
             995.00,569.00 980.00,570.00 980.00,570.00
             974.47,570.06 967.72,569.08 963.11,572.65
             957.26,577.16 958.87,583.38 965.02,586.55
             968.21,588.19 971.53,587.99 975.00,588.00
             972.03,601.16 960.23,632.06 953.83,644.00
             952.91,645.71 951.87,647.37 950.69,648.91
             950.69,648.91 948.49,651.43 948.49,651.43
             939.16,659.61 937.85,638.92 938.04,634.00
             939.16,605.10 947.24,566.32 968.01,545.00
             979.69,533.02 989.40,526.20 1004.00,518.31
             1007.70,516.30 1017.20,512.82 1017.40,508.03
             1017.59,503.08 1009.53,502.10 1006.00,502.01
             993.97,501.71 980.89,506.41 970.00,511.30
             939.01,525.25 921.20,543.35 900.65,570.00
             894.02,578.60 877.66,603.36 871.00,609.00
             871.00,609.00 871.00,582.00 871.00,582.00
             871.06,577.55 872.51,566.44 873.45,562.00
             873.45,562.00 875.79,553.00 875.79,553.00
             876.52,547.77 875.28,540.39 869.00,539.27
             861.99,538.01 853.56,550.16 849.79,555.00
             841.97,565.07 827.97,587.56 821.43,599.00
             819.14,603.00 813.78,615.22 809.95,616.83
             806.01,618.49 805.59,612.45 805.14,610.00
             805.14,610.00 805.14,582.00 805.14,582.00
             805.01,577.32 805.74,565.86 807.93,562.00
             809.58,559.10 815.39,553.53 818.00,551.04
             818.00,551.04 827.00,542.96 827.00,542.96
             838.06,532.26 853.40,514.38 860.83,501.00
             860.83,501.00 867.01,487.00 867.01,487.00
             870.61,478.28 873.88,469.57 874.00,460.00
             874.23,440.24 871.07,427.57 854.00,415.72
             848.93,412.21 843.25,409.48 837.00,409.09
             827.58,408.51 822.13,413.38 816.17,420.00
             806.64,430.57 799.98,443.59 795.34,457.00
             788.11,477.90 782.81,503.03 780.15,525.00
             780.15,525.00 777.17,551.00 777.17,551.00
             776.83,554.56 777.38,558.67 775.69,561.91
             773.77,565.58 766.47,570.49 763.00,573.13
             763.00,573.13 739.00,592.00 739.00,592.00
             739.00,592.00 723.67,547.00 723.67,547.00
             723.67,547.00 714.21,516.00 714.21,516.00
             714.21,516.00 711.30,503.00 711.30,503.00
             711.30,503.00 710.66,493.00 710.66,493.00
             709.17,485.57 699.81,477.21 692.01,481.18
             687.81,483.31 683.93,489.77 682.04,494.00
             675.94,507.68 672.93,524.45 669.12,539.00
             669.12,539.00 664.43,554.00 664.43,554.00
             664.43,554.00 653.00,591.00 653.00,591.00
             653.00,591.00 642.19,616.89 642.19,616.89
             641.05,618.49 640.43,618.82 639.00,620.00
             639.00,608.66 640.52,599.11 642.61,588.00
             643.61,582.71 646.22,574.93 645.70,570.00
             645.48,567.93 644.44,562.81 643.57,561.02
             639.88,553.44 629.40,553.91 623.04,557.52
             619.83,559.34 616.63,562.46 613.99,565.04
             613.99,565.04 599.00,580.00 599.00,580.00
             597.92,574.62 600.78,566.56 602.13,561.00
             602.74,558.48 604.03,554.60 603.17,552.10
             602.60,550.43 601.41,549.30 599.89,548.45
             594.03,545.20 589.09,549.96 586.56,555.00
             586.56,555.00 578.55,577.00 578.55,577.00
             578.55,577.00 564.78,606.00 564.78,606.00
             560.43,614.34 557.12,622.49 547.00,625.00
             546.47,622.79 546.05,621.33 546.22,619.00
             546.22,619.00 550.65,598.00 550.65,598.00
             556.22,573.68 566.35,550.82 576.15,528.00
             578.39,522.77 583.21,510.32 583.82,505.00
             584.24,501.34 583.97,497.24 579.94,495.78
             573.72,493.51 564.32,502.15 560.00,505.87
             544.24,519.41 532.62,529.15 514.00,539.00
             512.74,535.04 511.10,532.26 508.48,529.01
             499.47,517.85 486.63,518.54 479.22,531.00
             473.27,541.02 475.70,558.23 486.02,564.52
             490.09,567.00 492.45,566.96 497.00,567.00
             496.99,586.90 488.58,616.60 482.86,636.00
             482.86,636.00 476.60,652.00 476.60,652.00
             475.65,654.26 474.35,657.80 471.91,658.83
             466.19,661.27 466.01,649.02 466.00,646.00
             466.00,646.00 468.00,612.00 468.00,612.00
             468.00,612.00 468.00,593.00 468.00,593.00
             467.94,580.19 464.10,566.34 449.00,565.28
             440.51,564.39 429.36,563.98 421.00,565.28
             410.53,567.32 399.46,573.02 390.00,577.75
             390.00,577.75 339.00,608.02 339.00,608.02
             330.72,613.73 307.45,631.63 300.00,634.00
             300.00,634.00 301.93,604.00 301.93,604.00
             302.26,600.41 302.93,592.29 304.90,589.47
             306.61,587.04 311.39,584.33 314.00,582.68
             314.00,582.68 335.00,570.75 335.00,570.75
             349.86,563.30 377.24,550.23 385.47,536.00
             390.35,527.57 391.19,516.54 391.64,506.99
             392.67,485.22 386.51,456.62 375.17,438.00
             368.55,427.12 357.27,417.16 344.00,417.00
             321.61,416.74 310.36,431.09 301.69,450.00
             293.27,468.38 290.87,480.86 286.35,500.00
             286.35,500.00 282.08,519.00 282.08,519.00
             282.08,519.00 279.08,542.00 279.08,542.00
             279.08,542.00 275.95,563.00 275.95,563.00
             275.65,565.68 274.89,573.68 273.71,575.62
             271.88,578.65 258.77,585.71 255.00,588.00
             255.00,588.00 218.00,614.42 218.00,614.42
             203.24,625.93 190.35,639.16 177.83,653.00
             161.07,671.54 141.68,695.26 131.00,718.00
             128.08,712.28 125.88,695.07 124.87,688.00
             124.87,688.00 122.28,673.00 122.28,673.00
             122.28,673.00 119.91,646.00 119.91,646.00
             119.91,646.00 118.98,636.00 118.98,636.00
             118.98,636.00 118.98,619.00 118.98,619.00
             118.98,619.00 118.04,610.00 118.04,610.00
             118.04,610.00 119.00,596.00 119.00,596.00
             119.00,596.00 119.00,581.00 119.00,581.00
             119.00,581.00 119.91,569.00 119.91,569.00
             121.39,547.48 124.21,526.20 128.45,505.00
             128.45,505.00 138.96,465.00 138.96,465.00
             138.96,465.00 141.35,456.00 141.35,456.00
             170.43,362.88 228.73,280.06 304.00,218.46
             318.19,206.85 333.65,196.36 349.00,186.34
             365.53,175.55 383.27,166.39 401.00,157.74
             560.46,80.01 756.76,95.76 902.00,197.72
             982.39,254.15 1041.41,328.43 1078.86,419.00
             1092.99,453.17 1102.79,488.53 1108.75,525.00
             1108.75,525.00 1114.00,565.00 1114.00,565.00 Z
           M 811.00,527.00
           C 811.07,504.51 822.23,471.78 832.70,452.00
             836.08,445.63 837.73,442.55 842.75,437.06
             844.89,434.72 847.42,432.32 850.87,433.62
             858.31,436.42 853.62,454.37 852.12,460.00
             847.28,478.13 837.45,494.08 826.37,509.00
             821.80,515.16 817.14,522.39 811.00,527.00 Z
           M 308.00,558.00
           C 308.18,549.56 311.52,535.69 313.20,527.00
             317.37,505.35 322.35,483.45 330.81,463.00
             333.94,455.45 340.67,435.82 351.00,437.45
             355.80,438.20 358.23,442.93 359.95,447.00
             362.86,453.92 364.99,472.23 365.00,480.00
             365.02,490.77 366.05,505.06 362.07,515.00
             356.65,528.54 344.64,534.67 333.00,542.05
             333.00,542.05 308.00,558.00 308.00,558.00 Z
           M 811.00,527.00
           C 811.00,527.00 811.00,528.00 811.00,528.00
             811.00,528.00 810.00,527.00 810.00,527.00
             810.00,527.00 811.00,527.00 811.00,527.00 Z
           M 494.22,537.66
           C 502.56,537.04 501.32,548.84 496.86,550.34
             490.85,552.37 488.47,541.64 494.22,537.66 Z
           M 696.00,540.00
           C 696.00,540.00 712.00,590.00 712.00,590.00
             713.22,593.68 718.27,605.83 717.31,608.83
             716.48,611.44 712.13,614.48 710.00,616.25
             710.00,616.25 693.00,631.17 693.00,631.17
             693.00,631.17 683.00,640.83 683.00,640.83
             683.00,640.83 630.67,689.54 630.67,689.54
             625.56,694.88 612.33,708.95 611.50,716.00
             610.15,727.38 627.76,730.90 636.00,731.04
             636.00,731.04 648.00,731.04 648.00,731.04
             648.00,731.04 660.00,732.00 660.00,732.00
             660.00,732.00 685.00,732.00 685.00,732.00
             685.00,732.00 701.00,733.00 701.00,733.00
             701.00,733.00 728.00,733.00 728.00,733.00
             728.00,733.00 743.00,734.00 743.00,734.00
             743.00,734.00 765.00,734.00 765.00,734.00
             768.84,733.95 770.25,733.76 774.00,733.00
             776.19,732.55 779.02,731.98 780.96,730.86
             784.16,729.02 786.34,725.68 786.75,722.00
             787.38,716.42 780.35,697.89 778.00,692.00
             778.00,692.00 756.94,640.00 756.94,640.00
             755.35,635.88 749.03,622.61 749.50,619.04
             749.89,616.02 752.91,613.88 755.00,611.92
             760.65,606.62 767.76,599.81 775.00,597.00
             774.10,607.06 776.13,624.73 777.58,635.00
             778.77,643.46 779.51,651.96 782.66,660.00
             785.30,666.73 793.46,677.90 802.00,674.82
             808.47,672.50 813.25,662.85 816.24,657.00
             816.24,657.00 840.00,611.00 840.00,611.00
             843.07,618.71 843.47,647.18 853.19,655.44
             860.09,661.32 868.07,658.40 873.24,651.91
             873.24,651.91 887.45,627.00 887.45,627.00
             887.45,627.00 906.00,599.00 906.00,599.00
             907.33,602.62 906.02,607.73 906.00,612.00
             905.96,621.59 906.87,634.77 909.29,644.00
             911.14,651.09 913.65,658.73 917.46,665.00
             919.75,668.76 923.45,673.80 927.01,676.35
             938.32,684.45 951.26,678.89 959.96,669.99
             973.73,655.89 982.20,631.19 989.09,613.00
             990.66,608.85 993.45,595.29 996.48,593.17
             998.51,591.76 1002.57,592.00 1005.00,592.00
             1005.00,592.00 1012.00,592.00 1012.00,592.00
             1012.00,592.00 1028.00,593.00 1028.00,593.00
             1028.00,593.00 1060.00,593.00 1060.00,593.00
             1060.00,593.00 1076.00,594.00 1076.00,594.00
             1076.00,594.00 1115.16,594.00 1115.16,594.00
             1115.16,594.00 1115.16,605.00 1115.16,605.00
             1115.16,605.00 1115.16,617.00 1115.16,617.00
             1115.16,617.00 1112.83,662.00 1112.83,662.00
             1112.83,662.00 1110.28,679.00 1110.28,679.00
             1100.75,749.73 1074.62,817.86 1036.31,878.00
             1013.39,913.97 980.15,952.42 948.00,980.28
             948.00,980.28 924.00,1000.58 924.00,1000.58
             874.08,1039.48 816.61,1068.51 756.00,1086.56
             724.09,1096.07 689.15,1101.82 656.00,1104.09
             656.00,1104.09 646.00,1105.00 646.00,1105.00
             646.00,1105.00 614.00,1106.00 614.00,1106.00
             614.00,1106.00 597.00,1105.00 597.00,1105.00
             597.00,1105.00 560.00,1102.83 560.00,1102.83
             560.00,1102.83 535.00,1099.08 535.00,1099.08
             472.75,1088.58 413.05,1067.28 359.00,1034.39
             284.59,989.09 228.69,930.73 184.40,856.00
             175.98,841.81 161.89,813.34 155.94,798.00
             154.20,793.52 148.48,781.07 148.39,777.00
             148.32,773.74 152.06,763.54 153.31,760.00
             157.26,748.81 161.45,737.64 166.75,727.00
             174.13,712.20 180.15,700.68 189.77,687.00
             209.58,658.83 239.77,629.29 269.00,611.00
             267.83,619.90 268.10,621.36 268.00,630.00
             268.00,630.00 267.00,643.00 267.00,643.00
             267.00,643.00 265.96,660.00 265.96,660.00
             265.96,660.00 265.96,669.00 265.96,669.00
             265.96,669.00 264.96,681.00 264.96,681.00
             264.96,681.00 264.96,697.00 264.96,697.00
             264.96,697.00 264.00,709.00 264.00,709.00
             264.00,709.00 264.00,745.00 264.00,745.00
             264.01,752.24 265.78,768.89 269.28,774.99
             273.22,781.87 281.46,785.89 289.00,782.64
             299.06,778.29 307.41,764.51 312.24,755.00
             321.74,736.31 334.60,700.49 340.26,680.00
             344.29,665.40 345.81,647.91 328.00,642.00
             330.81,636.07 336.04,632.71 341.00,628.59
             349.91,621.17 358.85,613.70 369.00,608.00
             369.00,608.00 365.37,622.00 365.37,622.00
             365.37,622.00 362.20,638.00 362.20,638.00
             358.90,654.83 356.35,666.92 361.44,684.00
             367.97,705.88 387.98,713.67 405.99,698.66
             418.17,688.51 427.01,664.84 432.31,650.00
             434.01,645.24 438.79,629.63 442.00,627.00
             440.05,637.91 441.33,643.33 442.72,654.00
             444.74,669.53 447.90,684.78 467.28,684.14
             471.27,684.01 475.35,683.69 479.00,681.95
             489.87,676.78 496.78,659.90 500.33,649.00
             503.96,637.87 511.51,598.79 513.56,586.00
             514.35,581.11 515.41,561.93 517.02,559.34
             518.74,556.58 532.35,550.62 536.00,549.00
             535.56,557.96 531.05,566.34 528.87,575.00
             525.82,587.17 520.02,613.17 520.00,625.00
             520.00,625.00 520.00,634.00 520.00,634.00
             520.01,643.50 521.32,654.89 531.00,659.35
             533.79,660.64 535.96,661.05 539.00,660.47
             540.92,660.10 543.29,659.19 545.00,658.25
             555.37,652.54 563.68,638.39 574.00,631.00
             574.00,636.70 573.23,645.06 576.09,650.00
             579.86,656.52 586.43,658.07 590.59,650.96
             592.83,647.11 594.39,639.49 595.72,635.00
             599.66,621.73 602.50,609.51 608.75,597.00
             612.19,590.13 615.78,582.45 623.00,579.00
             625.19,586.73 621.77,597.12 620.20,605.00
             617.21,620.03 616.98,625.90 617.00,641.00
             617.00,643.41 616.91,646.72 617.57,649.00
             620.17,658.08 630.23,660.04 638.00,656.64
             644.37,653.85 649.19,647.65 652.96,642.00
             657.77,634.78 662.85,621.37 666.42,613.00
             666.42,613.00 682.31,572.00 682.31,572.00
             682.31,572.00 688.06,554.00 688.06,554.00
             688.06,554.00 694.00,540.00 694.00,540.00
             694.00,540.00 696.00,540.00 696.00,540.00 Z
           M 433.00,579.00
           C 431.44,590.06 425.75,606.15 422.35,617.00
             422.35,617.00 419.25,629.00 419.25,629.00
             416.58,637.39 406.46,660.77 402.07,668.00
             402.07,668.00 395.00,678.00 395.00,678.00
             385.40,673.06 389.42,656.54 391.35,648.00
             396.68,624.46 409.26,589.30 433.00,579.00 Z
           M 908.00,598.00
           C 908.00,598.00 908.00,599.00 908.00,599.00
             908.00,599.00 907.00,598.00 907.00,598.00
             907.00,598.00 908.00,598.00 908.00,598.00 Z
           M 728.00,638.00
           C 728.00,638.00 749.55,693.00 749.55,693.00
             754.49,705.34 758.20,710.81 748.00,711.00
             748.00,711.00 744.00,711.00 744.00,711.00
             744.00,711.00 731.00,712.00 731.00,712.00
             731.00,712.00 708.00,711.00 708.00,711.00
             708.00,711.00 688.00,711.00 688.00,711.00
             688.00,711.00 673.00,710.00 673.00,710.00
             673.00,710.00 649.00,709.00 649.00,709.00
             652.34,702.79 661.49,693.84 666.85,688.72
             666.85,688.72 704.00,656.61 704.00,656.61
             709.91,651.81 722.00,640.70 728.00,638.00 Z
           M 291.00,748.00
           C 291.00,748.00 291.00,732.00 291.00,732.00
             291.00,732.00 291.91,720.00 291.91,720.00
             291.91,720.00 294.17,691.00 294.17,691.00
             294.17,691.00 298.00,652.00 298.00,652.00
             304.12,651.19 316.81,649.31 321.70,653.65
             326.51,657.92 324.30,665.75 322.65,671.00
             322.65,671.00 306.88,713.00 306.88,713.00
             306.88,713.00 298.01,736.00 298.01,736.00
             296.22,740.34 294.94,745.19 291.00,748.00 Z" />
</svg>
